<?xml version="1.0" encoding="UTF-8" ?>
<svg width="65" height="55" version="1.1" xmlns="http://www.w3.org/2000/svg">
    <circle  cx="31" cy="28" r ="30" stroke="black" fill="DarkCyan"/>
    <rect x="3" y="9" width="59" height="38" stroke="none" fill="Maroon"/>
    <path d="M 32 50 L 32 9 Q 32 4 37 4 L 59 4 L 59 43 L 37 43 Q 32 43 32 48 Q 32 43 27 43 L 6 43 L 6 4 L 27 4 Q 32 4 32 9" stroke="black" fill="White"/>
    <path d="M 42 50 L 22 50 L 32 50" stroke="black" fill="transparent"/>
    <path d="M  6  9 L  3  9 L  3 47 L 24 47" stroke="black" fill="transparent"/>
    <path d="M 59  9 L 62  9 L 62 47 L 40 47" stroke="black" fill="transparent"/>
    <path d="M 19  8 L 27  8 Q 32  8 32 13 Q 32  8 37  8 L 43  8" stroke="black" fill="transparent"/>
    <path d="M 26 13 L 27 13 Q 32 13 32 18 Q 32 13 37 13 L 56 13" stroke="black" fill="transparent"/>
    <path d="M 20 18 L 27 18 Q 32 18 32 23 Q 32 18 37 18 L 56 18" stroke="black" fill="transparent"/>
    <path d="M  9 23 L 27 23 Q 32 23 32 28 Q 32 23 37 23 L 40 23" stroke="black" fill="transparent"/>
    <path d="M 26 28 L 27 28 Q 32 28 32 33 Q 32 28 37 28 L 56 28" stroke="black" fill="transparent"/>
    <path d="M 18 33 L 27 33 Q 32 33 32 38 Q 32 33 37 33 L 45 33" stroke="black" fill="transparent"/>
    <path d="M 26 38 L 27 38 Q 32 38 32 43 Q 32 38 37 38 L 50 38" stroke="black" fill="transparent"/>
    <path d="M  9  8 L 17  8" stroke="black" fill="transparent"/>
    <path d="M  9 13 L 24 13" stroke="black" fill="transparent"/>
    <path d="M  9 18 L 18 18" stroke="black" fill="transparent"/>
    <path d="M  9 28 L 24 28" stroke="black" fill="transparent"/>
    <path d="M  9 33 L 16 33" stroke="black" fill="transparent"/>
    <path d="M  9 38 L 24 38" stroke="black" fill="transparent"/>
    <path d="M 45  8 L 56  8" stroke="black" fill="transparent"/>
    <path d="M 42 23 L 56 23" stroke="black" fill="transparent"/>
    <path d="M 47 33 L 56 33" stroke="black" fill="transparent"/>
    <path d="M 52 38 L 56 38" stroke="black" fill="transparent"/>
</svg>